# xmcd
#
# Track frame offsets:
#	225
#	24886
#	45708
#	64696
#	83101
#	106030
#	126593
#	148285
#	171363
#	191834
#	214071
#	236840
#	255035
#	278176
#	289411
#	308134
#
# Disc length: 4378 seconds
#
# Revision: 1
# Processed by: cddbd v1.5.1PL2 Copyright (c) Steve Scherf et al.
# Submitted via: audiograbber 1.83.01
#
DISCID=ef111710
DTITLE=Chris Rea - World Ballad Collection
DYEAR=1999
DGENRE=
TTITLE0=And You My Love
TTITLE1=Winter Song
TTITLE2=Heaven
TTITLE3=Shine, Shine, Shine
TTITLE4=On The Beach
TTITLE5=There She Goes
TTITLE6=Shadows Of The Big Man
TTITLE7=90's Blues
TTITLE8=Road To Hell
TTITLE9=I'm Still Holding On
TTITLE10=Looking For The Summer
TTITLE11=I Ain't The Fool
TTITLE12=Every Second Counts
TTITLE13=Bless Them All
TTITLE14=Auf Immer Und Ewig (Soundtrack)
TTITLE15=Ace Of Hearts
EXTD=
EXTT0=
EXTT1=
EXTT2=
EXTT3=
EXTT4=
EXTT5=
EXTT6=
EXTT7=
EXTT8=
EXTT9=
EXTT10=
EXTT11=
EXTT12=
EXTT13=
EXTT14=
EXTT15=
PLAYORDER=
